<?xml version="1.0" encoding="utf-8"?>
<!-- Generator: Adobe Illustrator 23.0.1, SVG Export Plug-In . SVG Version: 6.00 Build 0)  -->
<svg version="1.1" id="Vrstva_1" xmlns="http://www.w3.org/2000/svg" xmlns:xlink="http://www.w3.org/1999/xlink" x="0px" y="0px"
	 viewBox="0 0 442 324.07" style="enable-background:new 0 0 442 324.07;" xml:space="preserve">
<style type="text/css">
	.st0{fill:#4B80A1;}
	.st1{fill:#CCD2D3;}
	.st2{fill:#FFFFFF;}
	.st3{fill:#696767;}
	.st4{fill:#774D2F;}
	.st5{fill:#E3BF7E;}
	.st6{fill:#E30613;}
</style>
<g>
	<g>
		<path class="st0" d="M238.48,186.82c-0.64,0.05-1.29,0.23-1.91,0.14c-2.99-0.44-4.47,0.58-3.9,3.79c0.31,1.72-0.59,2.36-2.19,2.12
			c-3.09-0.47-4.32,0.81-3.82,3.89c0.29,1.8-0.77,2.14-2.3,2.09c-2.24-0.07-4.5,0.1-6.73-0.04c-2.16-0.13-3.32,0.55-2.97,2.86
			c0.41,2.63-0.76,3.25-3.24,3.13c-4.27-0.2-8.55-0.1-12.82-0.01c-1.64,0.03-2.32-0.49-2.25-2.19c0.1-2.35,0.16-4.71-0.03-7.05
			c-0.17-2.25,0.6-3.21,2.86-2.87c2.45,0.37,3.29-0.53,3.28-3.13c-0.03-8.52,0.08-8.52-8.49-8.52c-4.28,0-8.56-0.12-12.83,0.04
			c-2.25,0.09-3.19-0.63-2.85-2.88c0.35-2.37-0.63-3.35-3.05-3.09c-1.37,0.15-2.79,0.16-4.16,0c-3.19-0.37-5.28,0.27-4.59,4.16
			c0.26,1.45-0.65,1.79-1.93,1.78c-4.81-0.04-9.62-0.07-14.43,0c-2.59,0.04-1.83-1.82-1.87-3.15c-0.05-1.41-0.5-3.09,2.02-3.04
			c1.67,0.04,4,0.97,4.06-2.39c0.05-2.54-0.75-3.4-3.27-3.3c-3.95,0.16-7.91-0.07-11.86,0.07c-2.15,0.08-3.26-0.48-2.84-2.82
			c0.5-2.77-0.81-3.43-3.38-3.31c-4.05,0.2-8.13-0.07-12.18,0.11c-2.21,0.1-2.91-0.71-2.6-2.74c0.37-2.46-0.54-3.56-3.13-3.22
			c-1.26,0.17-2.57-0.06-3.84,0.05c-3.07,0.25-5.87,0.32-5.1-4.17c0.25-1.49-0.91-1.7-2.07-1.7c-10.58,0-21.17,0.02-31.75-0.03
			c-1.53-0.01-2.09,0.55-2.02,2.05c0.08,1.71-0.11,3.43,0.04,5.13c0.28,3.14,0.02,5.41-4.21,4.66c-2.39-0.42-2,1.85-1.9,3.16
			c0.18,2.25-0.56,3.14-2.82,2.78c-2.37-0.38-3.43,0.73-3.15,3.06c0.27,2.21-0.57,2.98-2.83,2.9c-4.38-0.16-8.77-0.16-13.14,0.01
			c-2.26,0.09-2.5-1.03-2.26-2.73c0.2-1.46-0.95-3.7,2.14-3.49c2.13,0.14,4.29-0.1,6.41,0.09c2.59,0.22,3.66-0.61,3.51-3.36
			c-0.21-3.84,0.03-7.7-0.09-11.54c-0.07-2.05,0.24-3.34,2.74-2.92c2.67,0.46,3.44-0.79,3.42-3.42c-0.07-8.25,0.03-8.38-8.24-8.19
			c-2.94,0.07-4.46-0.48-3.84-3.74c0.42-2.23-0.98-2.36-2.68-2.31c-1.54,0.04-3.57,0.9-2.8-2.46c0.46-1.99-0.93-4.02-3.82-3.4
			c-2.36,0.51-3.02-0.68-2.8-2.84c0.13-1.27,0.02-2.56,0.02-3.85c-0.01-4.68,0-4.8-4.58-5.21c-2.17-0.19-1.3-1.62-1.31-2.54
			c-0.06-9.83-0.16-19.67,0.03-29.5c0.05-2.83-0.7-3.96-3.53-3.47c-1.86,0.32-2.88-0.24-2.52-2.37c0.26-1.58-0.83-3.86,2.37-3.63
			c2.23,0.17,4.49,0.14,6.72-0.03c2.29-0.18,3.49,0.44,3.06,2.96c-0.4,2.33,0.49,3.37,2.96,3.06c1.47-0.19,3.01,0.12,4.48-0.07
			c3.18-0.4,5.16,0.23,4.47,4.08c-0.37,2.08,1.27,1.89,2.5,1.76c2.57-0.27,4.2,0.27,3.64,3.36c-0.41,2.26,0.87,2.85,2.79,2.55
			c2.55-0.41,3.54,0.57,3.2,3.15c-0.17,1.26-0.03,2.56-0.03,3.84c0,4.41-0.01,4.54,4.33,4.85c2.18,0.15,1.75,1.55,1.63,2.68
			c-0.27,2.66,0.76,3.78,3.42,3.32c2.14-0.37,2.79,0.6,2.73,2.67c-0.12,4.06,0.08,8.13-0.08,12.18c-0.09,2.25,0.7,3.21,2.9,2.87
			c2.56-0.4,3.46,0.75,3.18,3.16c-0.04,0.32-0.03,0.64,0.01,0.96c0.28,2.49-1.27,6.06,0.71,7.24c2.58,1.54,6.24,0.48,9.43,0.44
			c1.94-0.02,1.8-1.69,1.62-2.86c-0.41-2.75,0.92-3.17,3.25-3.08c3.84,0.16,7.7-0.06,11.54,0.11c2.52,0.11,3.62-0.8,3.27-3.31
			c-0.28-2.06,0.45-2.9,2.65-2.69c2.12,0.21,4.28-0.06,6.41,0.08c2.14,0.14,3.32-0.49,2.97-2.82c-0.37-2.47,0.54-3.65,3.13-3.18
			c2.47,0.45,3.36-0.67,2.94-3.01c-0.46-2.51,0.67-3.22,3-2.9c1.37,0.18,2.79,0.22,4.16,0.07c3.27-0.38,5.65-0.09,5.11,4.26
			c-0.29,2.33,1.88,1.52,3.03,1.56c1.23,0.04,3.17,0.38,2.77-1.91c-0.65-3.73,1.27-4.19,4.34-3.99c3.51,0.23,7.05-0.07,10.57,0.09
			c2.26,0.1,3.5-0.4,3.05-2.94c-0.43-2.4,0.56-3.14,2.99-3.01c4.05,0.21,8.12-0.04,12.18,0.08c1.99,0.06,3.02-0.39,2.71-2.62
			c-0.39-2.78,0.8-3.66,3.63-3.45c3.93,0.29,7.91-0.02,11.86,0.11c2.1,0.07,3.03-0.69,2.69-2.77c-0.45-2.76,0.77-3.62,3.38-3.29
			c1.37,0.17,2.79-0.1,4.16,0.06c3.15,0.38,5.16-0.21,4.57-4.09c-0.35-2.28,1.54-1.94,2.83-1.8c2.54,0.28,3.22-0.69,3.21-3.22
			c-0.08-23.41-0.03-46.82-0.03-70.23c0-1.72-0.37-3.46,2.48-3.12c2.02,0.24,4.25-0.31,3.63,2.98c-0.47,2.48,1.16,2.61,2.89,2.41
			c2.38-0.27,3.7,0.35,3.21,3.09c-0.39,2.2,0.64,3.25,2.88,2.87c2.93-0.49,3.77,1.09,3.01,3.46c-0.78,2.46,0.51,2.62,2.17,2.41
			c3.26-0.41,4.43,0.93,3.88,4.09c-0.16,0.93-0.02,1.92-0.02,2.88c0,4.47-0.01,4.59,4.35,4.87c1.78,0.12,1.8,1.04,1.79,2.3
			c-0.02,4.17,0.09,8.34-0.05,12.51c-0.08,2.25,0.39,3.56,2.95,3.06c2.72-0.53,3.3,0.85,3.1,3.23c-0.16,2.02,0.06,4.07-0.08,6.09
			c-0.14,2,0.69,2.8,2.59,2.49c2.86-0.47,3.92,0.7,3.49,3.51c-0.31,2.05,0.88,2.71,2.68,2.45c2.64-0.39,3.79,0.61,3.36,3.3
			c-0.34,2.17,0.73,2.75,2.75,2.69c4.06-0.12,8.13,0.07,12.18-0.09c2.25-0.09,3.55,0.38,3.09,2.94c-0.43,2.4,0.59,3.07,2.98,3.04
			c9.62-0.13,19.24-0.05,28.86-0.06c4.5-0.01,4.51,0,4.17,4.37c-0.03,0.44-0.7,0.92,0.04,1.34c0.45,0.62,1.12,0.53,1.74,0.52
			c16.95-0.02,33.89-0.05,50.84-0.08c2.04,0.22,1.49,1.81,1.4,2.94c-0.17,2.23,0.65,2.97,2.92,2.94c8.12-0.12,16.25,0.03,24.38-0.1
			c2.22-0.03,3.2,0.54,2.83,2.84c-0.38,2.33,0.51,3.22,2.99,3.1c4.27-0.2,8.55-0.05,12.83-0.04c1.18,0,2.41-0.19,2.34,1.69
			c-0.21,5.43,0.36,10.88-0.31,16.3c-14.97-0.02-29.93,0-44.9-0.11c-2.14-0.01-2.85,0.65-2.7,2.75c0.08,1.05,0.59,2.44-0.75,3.17
			c-2.71,1.47-5.83-0.24-5.69-3.24c0.1-2.19-0.69-2.72-2.75-2.7c-2.05,0.02-3.4,0.35-2.99,2.77c0.43,2.59-0.68,3.21-3.18,3.18
			c-11.65-0.13-23.3,0.03-34.95-0.11c-3.04-0.04-4.26,0.5-4.14,3.97c0.29,8.54,0.06,17.1,0.03,25.65l0.01-0.01
			c-1.93,0.01-3.86,0.01-5.79,0.02c-0.07-6.92-0.26-13.85-0.15-20.77c0.04-2.44-0.72-3.05-3.08-3.04c-2.33,0.01-3.14,0.55-3.1,3.02
			c0.13,6.92-0.02,13.85-0.06,20.78c-1.93,0-3.87,0-5.8,0c-0.03-6.93-0.09-13.86-0.09-20.78c0-1.72,0.07-3.2-2.43-2.97
			c-1.85,0.17-3.65-0.46-3.59,2.67c0.12,7.02-0.17,14.05-0.29,21.08c-1.93,0-3.87,0-5.8,0c-0.01-5-0.11-10.01,0.03-15.01
			c0.06-2.17-0.52-2.96-2.82-2.96c-2.38,0-3.2,0.69-3.03,3.1c0.2,2.97,0.05,5.96,0.05,8.94c0,5.84,0,5.84,5.81,5.9
			c0.03,1.49,0.06,2.98,0.08,4.48c0.01,0.64-0.01,1.27-0.69,1.66c-2.48,1.42-5.5-0.33-5.61-3.23c-0.05-1.19,0.4-3.05-1.62-2.71
			c-4.82,0.81-4.48-2.23-4.32-5.31c0.06-1.17-0.08-2.35,0.03-3.52c0.18-2.04-0.28-3.13-2.73-3.08c-2.19,0.05-3.58,0.35-3.13,2.94
			c0.41,2.4-0.6,3.37-2.99,2.98c-2.16-0.35-3.28,0.47-2.89,2.78c0.46,2.7-0.92,3.43-3.27,3.06c-2.42-0.38-3.35,0.62-2.98,3.01
			c0.35,2.21-0.58,3.2-2.84,2.84c-2.32-0.37-3.44,0.46-3.04,2.95c0.34,2.15-0.49,3.26-2.8,2.9c-2.62-0.41-3.82,0.63-3.41,3.34
			c0.33,2.21-0.59,3.24-2.84,2.84c-2.72-0.48-3.34,0.91-3.08,3.26C238.62,185.1,238.5,185.96,238.48,186.82z"/>
		<path class="st1" d="M286.63,163.12c1.93,0,3.87,0,5.8,0l-0.02-0.03c0.04,1.16,0.27,2.35,0.09,3.48c-0.4,2.46,0.89,2.7,2.89,2.85
			c2.73,0.2,4-0.58,3.49-3.48c-0.16-0.92-0.02-1.9-0.02-2.85l-0.03,0.03c1.93,0,3.87,0,5.8,0l-0.03-0.03c0.01,1.06,0.17,2.15,0,3.18
			c-0.53,3.09,1.1,3.58,3.64,3.34c1.93-0.18,2.9-0.97,2.75-3.01c-0.09-1.16,0.03-2.33,0.06-3.5l-0.03,0.03
			c1.93-0.01,3.86-0.01,5.79-0.02c-0.02,1.39-0.05,2.78-0.06,4.17c-0.01,0.97-0.11,2.16,1.32,2.03c1.59-0.15,3.66,0.63,4.63-1.15
			c1.43-2.63-0.28-5.06-3.33-5.06c-0.85,0-1.71,0.02-2.56,0.03c0.02-8.55,0.25-17.11-0.03-25.65c-0.12-3.47,1.1-4.01,4.14-3.97
			c11.65,0.15,23.3-0.01,34.95,0.11c2.5,0.03,3.61-0.59,3.18-3.18c-0.4-2.42,0.95-2.75,2.99-2.77c2.05-0.02,2.85,0.52,2.75,2.7
			c-0.14,3,2.98,4.71,5.69,3.24c1.34-0.73,0.83-2.11,0.75-3.17c-0.15-2.1,0.56-2.76,2.7-2.75c14.96,0.1,29.93,0.09,44.9,0.11
			c0.02,0.64-0.11,1.32,0.07,1.92c0.99,3.24-0.35,4.33-3.47,3.89c-1.8-0.25-2.63,0.58-2.38,2.37c0.35,2.55-0.48,3.89-3.27,3.44
			c-2.3-0.37-2.77,0.97-2.54,2.85c0.33,2.64-0.74,3.64-3.44,3.51c-3.84-0.18-7.69-0.01-11.54-0.07c-1.75-0.03-3.13-0.01-3.07,2.44
			c0.06,2.13,0.38,3.7,2.96,3.35c2.54-0.34,3.02,0.87,2.99,3.14c-0.02,2.1-0.69,3.02-2.77,2.68c-2.68-0.43-3.43,0.89-3.11,3.28
			c0.26,1.96-0.61,2.68-2.56,2.57c-2.34-0.13-4.71,0.05-7.05-0.07c-1.93-0.1-2.84,0.58-2.57,2.55c0.45,3.25-0.8,3.89-3.99,3.42
			c-3.55-0.53-7.25,0-10.88-0.18c-2.33-0.11-3.49,0.55-3.09,3.02c0.42,2.64-0.63,3.57-3.33,3.41c-3.83-0.22-7.7,0.06-11.54-0.1
			c-2.29-0.09-3.52,0.49-3.12,3c0.37,2.29-0.68,2.95-2.88,2.87c-4.06-0.15-8.12-0.03-12.18-0.04c-1.29,0-2.62-0.15-3.21,1.41
			c-0.36-1.84-1.79-1.44-3.01-1.44c-9.17,0-18.35,0-27.52,0c-5.76,0-5.76,0-5.6,5.78c-16.08,0.01-32.16,0.02-48.24,0.03
			c0.02-0.85,0.14-1.72,0.05-2.56c-0.26-2.35,0.36-3.74,3.08-3.26c2.25,0.4,3.17-0.63,2.84-2.84c-0.41-2.71,0.79-3.75,3.41-3.34
			c2.31,0.36,3.15-0.74,2.8-2.9c-0.4-2.49,0.73-3.31,3.04-2.95c2.25,0.35,3.19-0.63,2.84-2.84c-0.37-2.38,0.55-3.38,2.98-3.01
			c2.35,0.37,3.73-0.36,3.27-3.06c-0.39-2.31,0.73-3.12,2.89-2.78c2.4,0.39,3.41-0.58,2.99-2.98c-0.45-2.59,0.94-2.89,3.13-2.94
			c2.45-0.06,2.91,1.03,2.73,3.08c-0.1,1.16,0.03,2.35-0.03,3.52c-0.16,3.08-0.5,6.12,4.32,5.31c2.02-0.34,1.58,1.52,1.62,2.71
			c0.11,2.9,3.13,4.65,5.61,3.23c0.68-0.39,0.69-1.02,0.69-1.66c-0.01-1.49-0.05-2.98-0.08-4.48L286.63,163.12z M356.28,151.43
			c2.93,0.88,2.69-1.14,2.88-3.24c0.26-2.83-1.18-2.94-3.4-3.08c-2.82-0.18-2.97,1.16-3.09,3.4
			C352.54,151.29,353.77,151.87,356.28,151.43z M368.08,151.43c2.52,0.58,3.19-0.7,3.25-3.14c0.07-2.69-1.2-3.04-3.48-3.19
			c-2.91-0.19-2.91,1.35-3,3.48C364.75,151,365.58,151.96,368.08,151.43z M379.97,145.22c-2-0.16-3.63,0.01-3.44,2.56
			c0.16,2.13,0.37,3.83,3.36,3.84c2.78,0.01,3.05-1.18,3.08-3.44C383,145.8,382.3,144.72,379.97,145.22z"/>
		<path class="st0" d="M286.72,186.79c-0.17-5.78-0.17-5.78,5.6-5.78c9.17,0,18.35,0,27.52,0c1.23,0,2.66-0.4,3.01,1.44
			c0.01,2.56,0.11,5.13-0.01,7.69c-0.09,1.94,0.6,2.85,2.56,2.55c2.78-0.44,4.02,0.57,3.53,3.47c-0.41,2.41,1.12,2.69,2.91,2.4
			c2.96-0.48,3.07,1.13,3.2,3.49c0.16,2.86-1.32,2.75-3.29,2.73c-6.2-0.06-12.4-0.1-18.59,0.03c-2.01,0.04-2.76-0.62-2.48-2.55
			c0.38-2.57-0.55-3.85-3.3-3.42c-2.01,0.31-3.1-0.41-2.72-2.62c0.46-2.71-0.73-3.67-3.37-3.34c-1.26,0.16-2.58-0.11-3.84,0.05
			c-3.34,0.41-5.71-0.07-4.86-4.35c0.24-1.19-0.48-1.72-1.7-1.69C289.49,186.91,288.11,186.83,286.72,186.79z"/>
		<path class="st1" d="M369.44,98.13c-16.95,0.03-33.89,0.05-50.84,0.08c-0.62,0-1.3,0.09-1.74-0.52
			c16.83-0.02,33.66-0.05,50.49-0.07C368.08,97.61,368.86,97.49,369.44,98.13z"/>
		<path class="st1" d="M304.62,163.12c0.04-6.93,0.2-13.86,0.06-20.78c-0.05-2.47,0.77-3.01,3.1-3.02c2.36-0.01,3.11,0.59,3.08,3.04
			c-0.1,6.92,0.08,13.84,0.15,20.77c0,0,0.03-0.03,0.03-0.03c-2.15,0-4.3,0-6.45,0L304.62,163.12z"/>
		<path class="st1" d="M292.42,163.12c0.12-7.03,0.41-14.05,0.29-21.08c-0.05-3.14,1.74-2.5,3.59-2.67c2.5-0.23,2.43,1.24,2.43,2.97
			c0,6.93,0.05,13.86,0.09,20.78c0,0,0.03-0.03,0.03-0.03c-2.15,0-4.3,0-6.44,0C292.4,163.09,292.42,163.12,292.42,163.12z"/>
		<path class="st1" d="M286.65,163.09c-5.81-0.06-5.81-0.06-5.81-5.9c0-2.98,0.15-5.97-0.05-8.94c-0.16-2.4,0.65-3.1,3.03-3.1
			c2.31,0,2.88,0.79,2.82,2.96c-0.14,5-0.03,10.01-0.03,15.01C286.63,163.12,286.65,163.09,286.65,163.09z"/>
		<path class="st2" d="M356.28,151.43c-2.51,0.44-3.75-0.14-3.6-2.92c0.12-2.24,0.27-3.58,3.09-3.4c2.22,0.14,3.65,0.25,3.4,3.08
			C358.98,150.3,359.21,152.31,356.28,151.43z"/>
		<path class="st0" d="M292.4,163.09c2.15,0,4.3,0,6.44,0c0,0.95-0.14,1.93,0.02,2.85c0.5,2.9-0.76,3.68-3.49,3.48
			c-1.99-0.15-3.29-0.39-2.89-2.85C292.67,165.44,292.44,164.25,292.4,163.09z"/>
		<path class="st2" d="M368.08,151.43c-2.5,0.53-3.33-0.43-3.23-2.85c0.09-2.13,0.09-3.66,3-3.48c2.28,0.15,3.55,0.49,3.48,3.19
			C371.27,150.73,370.6,152.01,368.08,151.43z"/>
		<path class="st0" d="M304.59,163.09c2.15,0,4.3,0,6.45,0c-0.03,1.17-0.15,2.34-0.06,3.5c0.15,2.04-0.82,2.83-2.75,3.01
			c-2.54,0.24-4.17-0.24-3.64-3.34C304.76,165.24,304.6,164.15,304.59,163.09z"/>
		<path class="st2" d="M379.97,145.22c2.33-0.5,3.03,0.58,3,2.96c-0.03,2.26-0.3,3.45-3.08,3.44c-2.99-0.01-3.21-1.71-3.36-3.84
			C376.34,145.23,377.96,145.05,379.97,145.22z"/>
		<path class="st0" d="M316.79,163.11c0.85-0.01,1.71-0.03,2.56-0.03c3.05,0,4.76,2.44,3.33,5.06c-0.97,1.78-3.03,1-4.63,1.15
			c-1.43,0.13-1.33-1.06-1.32-2.03C316.74,165.88,316.78,164.49,316.79,163.11C316.8,163.1,316.79,163.11,316.79,163.11z"/>
	</g>
	<rect x="364.09" y="125.75" width="8.89" height="8.89"/>
	<rect x="376.13" y="144.91" class="st2" width="6.83" height="6.83"/>
	<rect x="364.67" y="144.95" class="st2" width="6.83" height="6.83"/>
	<rect x="352.09" y="144.95" class="st2" width="6.83" height="6.83"/>
</g>
<g>
	
		<rect x="117.93" y="55.14" transform="matrix(-1 -1.224647e-16 1.224647e-16 -1 260.3159 114.5103)" class="st3" width="24.45" height="4.23"/>
	
		<rect x="123.08" y="59.37" transform="matrix(-1 -1.224647e-16 1.224647e-16 -1 278.84 123.691)" class="st3" width="32.67" height="4.95"/>
	
		<rect x="127.28" y="64.32" transform="matrix(-1 -1.224647e-16 1.224647e-16 -1 297.4184 133.5946)" class="st3" width="42.87" height="4.95"/>
	
		<rect x="131.9" y="69.27" transform="matrix(-1 -1.224647e-16 1.224647e-16 -1 315.9786 143.4982)" class="st3" width="52.17" height="4.95"/>
	
		<rect x="137.11" y="74.23" transform="matrix(-1 -1.224647e-16 1.224647e-16 -1 330.5087 153.4019)" class="st3" width="56.3" height="4.95"/>
	
		<rect x="142" y="79.18" transform="matrix(-1 -1.224647e-16 1.224647e-16 -1 301.9455 163.3055)" class="st3" width="17.95" height="4.95"/>
	
		<rect x="145.85" y="84.13" transform="matrix(-1 -1.224647e-16 1.224647e-16 -1 305.8039 172.7392)" class="st3" width="14.1" height="4.48"/>
	
		<rect x="179.31" y="79.18" transform="matrix(-1 -1.224647e-16 1.224647e-16 -1 382.3762 162.8356)" class="st3" width="23.77" height="4.48"/>
	
		<rect x="193.09" y="83.66" transform="matrix(-1 -1.224647e-16 1.224647e-16 -1 400.0328 171.7994)" class="st3" width="13.84" height="4.48"/>
	
		<rect x="151.16" y="88.61" transform="matrix(-1 -1.224647e-16 1.224647e-16 -1 316.4123 181.7031)" class="st3" width="14.1" height="4.48"/>
	
		<rect x="156.05" y="93.09" transform="matrix(-1 -1.224647e-16 1.224647e-16 -1 326.1894 190.6669)" class="st3" width="14.1" height="4.48"/>
	
		<rect x="160.38" y="97.57" transform="matrix(-1 -1.224647e-16 1.224647e-16 -1 334.8641 199.6308)" class="st3" width="14.1" height="4.48"/>
	
		<rect x="165.25" y="102.06" transform="matrix(-1 -1.224647e-16 1.224647e-16 -1 344.6051 208.5946)" class="st3" width="14.1" height="4.48"/>
	
		<rect x="169.49" y="106.54" transform="matrix(-1 -1.224647e-16 1.224647e-16 -1 353.081 217.5585)" class="st3" width="14.1" height="4.48"/>
	
		<rect x="174.8" y="111.02" transform="matrix(-1 -1.224647e-16 1.224647e-16 -1 363.6894 226.5223)" class="st3" width="14.1" height="4.48"/>
	
		<rect x="179.69" y="115.5" transform="matrix(-1 -1.224647e-16 1.224647e-16 -1 373.4666 235.4862)" class="st3" width="14.1" height="4.48"/>
	
		<rect x="184.02" y="119.98" transform="matrix(-1 -1.224647e-16 1.224647e-16 -1 382.1412 244.45)" class="st3" width="14.1" height="4.48"/>
	
		<rect x="188.89" y="124.47" transform="matrix(-1 -1.224647e-16 1.224647e-16 -1 391.8822 253.4139)" class="st3" width="14.1" height="4.48"/>
	
		<rect x="192.26" y="128.95" transform="matrix(-1 -1.224647e-16 1.224647e-16 -1 398.6232 262.3777)" class="st3" width="14.1" height="4.48"/>
	
		<rect x="197.57" y="133.43" transform="matrix(-1 -1.224647e-16 1.224647e-16 -1 409.2316 271.3416)" class="st3" width="14.1" height="4.48"/>
	
		<rect x="202.46" y="137.91" transform="matrix(-1 -1.224647e-16 1.224647e-16 -1 419.0087 280.3055)" class="st3" width="14.1" height="4.48"/>
	
		<rect x="206.79" y="142.39" transform="matrix(-1 -1.224647e-16 1.224647e-16 -1 427.6834 289.2693)" class="st3" width="14.1" height="4.48"/>
	
		<rect x="211.66" y="146.88" transform="matrix(-1 -1.224647e-16 1.224647e-16 -1 437.4244 298.2332)" class="st3" width="14.1" height="4.48"/>
	
		<rect x="214.49" y="151.36" transform="matrix(-1 -1.224647e-16 1.224647e-16 -1 443.081 307.197)" class="st3" width="14.1" height="4.48"/>
	
		<rect x="219.8" y="155.84" transform="matrix(-1 -1.224647e-16 1.224647e-16 -1 453.6894 316.1609)" class="st3" width="14.1" height="4.48"/>
	
		<rect x="224.69" y="160.32" transform="matrix(-1 -1.224647e-16 1.224647e-16 -1 463.4666 325.1248)" class="st3" width="14.1" height="4.48"/>
	
		<rect x="229.02" y="164.8" transform="matrix(-1 -1.224647e-16 1.224647e-16 -1 472.1412 334.0886)" class="st3" width="14.1" height="4.48"/>
	
		<rect x="233.89" y="169.29" transform="matrix(-1 -1.224647e-16 1.224647e-16 -1 481.8822 343.0525)" class="st3" width="14.1" height="4.48"/>
	
		<rect x="235.84" y="173.77" transform="matrix(-1 -1.224647e-16 1.224647e-16 -1 481.819 352.0163)" class="st3" width="10.13" height="4.48"/>
	
		<rect x="250.2" y="182.73" transform="matrix(-1 -1.224647e-16 1.224647e-16 -1 509.4063 369.944)" class="st3" width="9" height="4.48"/>
	
		<rect x="254.22" y="191.69" transform="matrix(-1 -1.224647e-16 1.224647e-16 -1 513.4183 387.8717)" class="st3" width="4.99" height="4.48"/>
	
		<rect x="250.46" y="187.21" transform="matrix(-1 -1.224647e-16 1.224647e-16 -1 514.6065 378.9079)" class="st3" width="13.69" height="4.48"/>
	
		<rect x="264.15" y="187.21" transform="matrix(-1 -1.224647e-16 1.224647e-16 -1 537.5583 378.9079)" class="st4" width="9.26" height="4.48"/>
	
		<rect x="259.2" y="191.69" transform="matrix(-1 -1.224647e-16 1.224647e-16 -1 537.5449 387.8717)" class="st4" width="19.14" height="4.48"/>
	
		<rect x="254.27" y="196.18" transform="matrix(-1 -1.224647e-16 1.224647e-16 -1 537.8159 396.8356)" class="st4" width="29.28" height="4.48"/>
	
		<rect x="254.13" y="200.66" transform="matrix(-1 -1.224647e-16 1.224647e-16 -1 532.4756 405.7994)" class="st4" width="24.21" height="4.48"/>
	
		<rect x="259.34" y="205.14" transform="matrix(-1 -1.224647e-16 1.224647e-16 -1 532.4214 414.7633)" class="st4" width="13.74" height="4.48"/>
	
		<rect x="302.7" y="229.79" transform="matrix(-1 -1.224647e-16 1.224647e-16 -1 617.7316 463.45)" class="st4" width="12.33" height="3.87"/>
	
		<rect x="298.8" y="225.31" transform="matrix(-1 -1.224647e-16 1.224647e-16 -1 609.9244 455.1006)" class="st4" width="12.33" height="4.48"/>
	
		<rect x="293.07" y="210.64" transform="matrix(-1 -1.224647e-16 1.224647e-16 -1 591.2286 426.3748)" class="st4" width="5.09" height="5.09"/>
	
		<rect x="288.41" y="215.11" transform="matrix(-1 -1.224647e-16 1.224647e-16 -1 591.3822 435.3025)" class="st4" width="14.57" height="5.09"/>
	
		<rect x="278.15" y="224.37" transform="matrix(-1 -1.224647e-16 1.224647e-16 -1 562.7964 453.8356)" class="st4" width="6.5" height="5.09"/>
	
		<rect x="283.28" y="219.64" transform="matrix(-1 -1.224647e-16 1.224647e-16 -1 589.4214 453.3025)" class="st4" width="22.87" height="14.02"/>
	
		<rect x="301.17" y="233.66" transform="matrix(-1 -1.224647e-16 1.224647e-16 -1 621.4681 481.3868)" class="st4" width="19.13" height="14.07"/>
	
		<rect x="287.12" y="233.66" transform="matrix(-1 -1.224647e-16 1.224647e-16 -1 588.2919 472.0163)" class="st4" width="14.04" height="4.7"/>
	
		<rect x="292.38" y="238.1" transform="matrix(-1 -1.224647e-16 1.224647e-16 -1 594.1157 481.5585)" class="st4" width="9.35" height="5.35"/>
	
		<rect x="297.06" y="242.23" transform="matrix(-1 -1.224647e-16 1.224647e-16 -1 603.4636 489.7994)" class="st4" width="9.35" height="5.35"/>
	
		<rect x="320.3" y="238.76" transform="matrix(-1 -1.224647e-16 1.224647e-16 -1 645.2761 510.2392)" class="st4" width="4.67" height="32.73"/>
	
		<rect x="315.63" y="233.66" transform="matrix(-1 -1.224647e-16 1.224647e-16 -1 635.9282 500.0464)" class="st4" width="4.67" height="32.73"/>
	
		<rect x="310.73" y="229.79" transform="matrix(-1 -1.224647e-16 1.224647e-16 -1 626.3611 492.3115)" class="st4" width="4.89" height="32.73"/>
	
		<rect x="334.54" y="252.42" transform="matrix(-1 -1.224647e-16 1.224647e-16 -1 673.7579 537.5645)" class="st4" width="4.67" height="32.73"/>
	
		<rect x="329.87" y="247.32" transform="matrix(-1 -1.224647e-16 1.224647e-16 -1 664.4101 527.3717)" class="st4" width="4.67" height="32.73"/>
	
		<rect x="324.97" y="243.45" transform="matrix(-1 -1.224647e-16 1.224647e-16 -1 654.8431 519.6368)" class="st4" width="4.89" height="32.73"/>
	
		<rect x="348.78" y="266.39" transform="matrix(-1 -1.224647e-16 1.224647e-16 -1 702.2399 556.7934)" class="st4" width="4.67" height="24.02"/>
	
		<rect x="353.46" y="270.45" transform="matrix(-1 -1.224647e-16 1.224647e-16 -1 711.5878 555.6006)" class="st4" width="4.67" height="14.69"/>
	
		<rect x="362.35" y="298.92" transform="matrix(-1 -1.224647e-16 1.224647e-16 -1 729.3709 612.5284)" class="st4" width="4.67" height="14.69"/>
	
		<rect x="367.02" y="294.59" transform="matrix(-1 -1.224647e-16 1.224647e-16 -1 738.7143 613.0841)" class="st4" width="4.67" height="23.9"/>
	
		<rect x="371.69" y="290.15" transform="matrix(-1 -1.224647e-16 1.224647e-16 -1 748.0622 604.2015)" class="st4" width="4.67" height="23.9"/>
	
		<rect x="376.14" y="294.02" transform="matrix(-1 -1.224647e-16 1.224647e-16 -1 756.9537 603.7859)" class="st4" width="4.67" height="15.75"/>
	
		<rect x="380.81" y="299.35" transform="matrix(-1 -1.224647e-16 1.224647e-16 -1 766.3016 604.2377)" class="st4" width="4.67" height="5.53"/>
	
		<rect x="357.67" y="304.66" transform="matrix(-1 -1.224647e-16 1.224647e-16 -1 720.023 614.8642)" class="st4" width="4.67" height="5.53"/>
	
		<rect x="357.36" y="276.41" transform="matrix(-1 -1.224647e-16 1.224647e-16 -1 719.395 557.4869)" class="st4" width="4.67" height="4.67"/>
	
		<rect x="344.11" y="261.29" transform="matrix(-1 -1.224647e-16 1.224647e-16 -1 692.892 555.3115)" class="st4" width="4.67" height="32.73"/>
	
		<rect x="339.22" y="257.42" transform="matrix(-1 -1.224647e-16 1.224647e-16 -1 683.325 547.5765)" class="st4" width="4.89" height="32.73"/>
	
		<rect x="306.06" y="225.27" transform="matrix(-1 -1.224647e-16 1.224647e-16 -1 616.7941 482.697)" class="st4" width="4.67" height="32.15"/>
	
		<rect x="301.28" y="219.64" transform="matrix(-1 -1.224647e-16 1.224647e-16 -1 607.6823 472.0163)" class="st4" width="5.13" height="32.73"/>
	
		<rect x="264.15" y="209.62" transform="matrix(-1 -1.224647e-16 1.224647e-16 -1 532.4619 425.3175)" class="st4" width="4.16" height="6.07"/>
	
		<rect x="245.97" y="173.77" transform="matrix(-1 -1.224647e-16 1.224647e-16 -1 496.4304 352.0163)" class="st5" width="4.48" height="4.48"/>
	
		<rect x="240.28" y="178.25" transform="matrix(-1 -1.224647e-16 1.224647e-16 -1 493.9364 360.9802)" class="st5" width="13.37" height="4.48"/>
	
		<rect x="240.28" y="182.73" transform="matrix(-1 -1.224647e-16 1.224647e-16 -1 490.4846 369.944)" class="st5" width="9.92" height="4.48"/>
	
		<rect x="245.36" y="215.69" transform="matrix(-1 -1.224647e-16 1.224647e-16 -1 495.2015 435.8717)" class="st5" width="4.48" height="4.48"/>
	
		<rect x="278.16" y="200.66" transform="matrix(-1 -1.224647e-16 1.224647e-16 -1 566.0178 405.7994)" class="st5" width="9.7" height="4.48"/>
	
		<rect x="273.08" y="205.14" transform="matrix(-1 -1.224647e-16 1.224647e-16 -1 565.2497 416.3898)" class="st5" width="19.08" height="6.11"/>
	
		<rect x="268.31" y="210.64" transform="matrix(-1 -1.224647e-16 1.224647e-16 -1 561.3822 426.3386)" class="st5" width="24.76" height="5.05"/>
	
		<rect x="264.12" y="215.41" transform="matrix(-1 -1.224647e-16 1.224647e-16 -1 552.9966 435.3025)" class="st5" width="24.76" height="4.48"/>
	
		<rect x="272.94" y="219.89" transform="matrix(-1 -1.224647e-16 1.224647e-16 -1 556.2136 444.2663)" class="st5" width="10.34" height="4.48"/>
	
		<rect x="272.94" y="224.05" transform="matrix(-1 -1.224647e-16 1.224647e-16 -1 551.2798 471.8446)" class="st5" width="5.4" height="23.74"/>
	
		<rect x="277.99" y="247.73" transform="matrix(-1 -1.224647e-16 1.224647e-16 -1 561.3822 505.4952)" class="st5" width="5.4" height="10.04"/>
	
		<rect x="282.83" y="257.5" transform="matrix(-1 -1.224647e-16 1.224647e-16 -1 571.069 528.9847)" class="st5" width="5.4" height="13.98"/>
	
		<rect x="287.66" y="271.48" transform="matrix(-1 -1.224647e-16 1.224647e-16 -1 580.7195 548.3717)" class="st5" width="5.4" height="5.4"/>
	
		<rect x="293.06" y="276.89" transform="matrix(-1 -1.224647e-16 1.224647e-16 -1 591.5268 559.179)" class="st5" width="5.4" height="5.4"/>
	
		<rect x="298.47" y="282.29" transform="matrix(-1 -1.224647e-16 1.224647e-16 -1 602.334 569.9862)" class="st5" width="5.4" height="5.4"/>
	
		<rect x="309.11" y="292.79" transform="matrix(-1 -1.224647e-16 1.224647e-16 -1 660.8046 590.9862)" class="st5" width="42.59" height="5.4"/>
	
		<rect x="353.46" y="285.63" transform="matrix(-1 -1.224647e-16 1.224647e-16 -1 712.4733 590.2994)" class="st5" width="5.56" height="19.03"/>
	
		<rect x="361.21" y="280.64" transform="matrix(-1 -1.224647e-16 1.224647e-16 -1 727.9794 580.3055)" class="st5" width="5.56" height="19.03"/>
	
		<rect x="366.58" y="285.15" transform="matrix(-1 -1.224647e-16 1.224647e-16 -1 738.7143 579.7407)" class="st5" width="5.56" height="9.45"/>
	
		<rect x="348.34" y="289.84" transform="matrix(-1 -1.224647e-16 1.224647e-16 -1 702.2399 589.188)" class="st5" width="5.56" height="9.52"/>
	
		<rect x="358.46" y="280.54" transform="matrix(-1 -1.224647e-16 1.224647e-16 -1 720.4907 585.2031)" class="st5" width="3.58" height="24.13"/>
	
		<rect x="249.84" y="220.18" transform="matrix(-1 -1.224647e-16 1.224647e-16 -1 513.9921 444.8356)" class="st5" width="14.31" height="4.48"/>
	
		<rect x="240.28" y="187.21" transform="matrix(-1 -1.224647e-16 1.224647e-16 -1 485.5238 402.9079)" class="st5" width="4.96" height="28.48"/>
</g>
<rect x="163.28" y="109.77" class="st0" width="91.43" height="39.35"/>
<rect x="175.18" y="104.79" class="st0" width="91.43" height="39.35"/>
<rect x="202.99" y="140.15" class="st6" width="33.08" height="13.98"/>
<rect x="211.56" y="150.84" class="st6" width="9.99" height="9.99"/>
<rect x="207.99" y="133.71" class="st6" width="23.04" height="9.99"/>
<rect x="202.99" y="161.38" class="st6" width="9.99" height="9.99"/>
<rect x="206.94" y="181.82" class="st6" width="9.99" height="9.99"/>
<rect x="192.57" y="188.94" class="st6" width="9.99" height="9.99"/>
</svg>
