<?xml version="1.0" encoding="utf-8"?>
<!-- Generator: Adobe Illustrator 23.0.1, SVG Export Plug-In . SVG Version: 6.00 Build 0)  -->
<svg version="1.1" id="Vrstva_1" xmlns="http://www.w3.org/2000/svg" xmlns:xlink="http://www.w3.org/1999/xlink" x="0px" y="0px"
	 viewBox="0 0 163 373.89" style="enable-background:new 0 0 163 373.89;" xml:space="preserve">
<style type="text/css">
	.st0{fill:#696767;}
	.st1{fill:#774D2F;}
	.st2{fill:#E3BF7E;}
</style>
<g>
	
		<rect x="37.45" y="13.81" transform="matrix(-0.8489 -0.5285 0.5285 -0.8489 83.4364 55.6884)" class="st0" width="24.45" height="4.23"/>
	
		<rect x="38.78" y="22.24" transform="matrix(-0.8489 -0.5285 0.5285 -0.8489 88.8427 74.8174)" class="st0" width="32.67" height="4.95"/>
	
		<rect x="38.95" y="31.35" transform="matrix(-0.8489 -0.5285 0.5285 -0.8489 93.7687 94.4514)" class="st0" width="42.87" height="4.95"/>
	
		<rect x="39.56" y="40.46" transform="matrix(-0.8489 -0.5285 0.5285 -0.8489 98.6829 114.0725)" class="st0" width="52.17" height="4.95"/>
	
		<rect x="41.05" y="48.5" transform="matrix(-0.8489 -0.5285 0.5285 -0.8489 100.9971 130.8205)" class="st0" width="56.3" height="4.95"/>
	
		<rect x="45.48" y="45.16" transform="matrix(-0.8489 -0.5285 0.5285 -0.8489 75.5086 116.8473)" class="st0" width="17.95" height="4.95"/>
	
		<rect x="46.55" y="50.42" transform="matrix(-0.8489 -0.5285 0.5285 -0.8489 71.2727 125.6844)" class="st0" width="14.1" height="4.48"/>
	
		<rect x="76.84" y="66.45" transform="matrix(-0.8489 -0.5285 0.5285 -0.8489 127.7352 173.8831)" class="st0" width="23.77" height="4.48"/>
	
		<rect x="86.92" y="74.92" transform="matrix(-0.8489 -0.5285 0.5285 -0.8489 132.7365 192.2537)" class="st0" width="13.84" height="4.48"/>
	
		<rect x="48.68" y="57.02" transform="matrix(-0.8489 -0.5285 0.5285 -0.8489 71.7266 139.0303)" class="st0" width="14.1" height="4.48"/>
	
		<rect x="50.47" y="63.41" transform="matrix(-0.8489 -0.5285 0.5285 -0.8489 71.6442 151.7836)" class="st0" width="14.1" height="4.48"/>
	
		<rect x="51.78" y="69.51" transform="matrix(-0.8489 -0.5285 0.5285 -0.8489 70.8506 163.751)" class="st0" width="14.1" height="4.48"/>
	
		<rect x="53.55" y="75.89" transform="matrix(-0.8489 -0.5285 0.5285 -0.8489 70.7448 176.4786)" class="st0" width="14.1" height="4.48"/>
	
		<rect x="54.78" y="81.93" transform="matrix(-0.8489 -0.5285 0.5285 -0.8489 69.8229 188.3043)" class="st0" width="14.1" height="4.48"/>
	
		<rect x="56.91" y="88.54" transform="matrix(-0.8489 -0.5285 0.5285 -0.8489 70.2769 201.6502)" class="st0" width="14.1" height="4.48"/>
	
		<rect x="58.69" y="94.93" transform="matrix(-0.8489 -0.5285 0.5285 -0.8489 70.1945 214.4035)" class="st0" width="14.1" height="4.48"/>
	
		<rect x="60" y="101.03" transform="matrix(-0.8489 -0.5285 0.5285 -0.8489 69.4008 226.3709)" class="st0" width="14.1" height="4.48"/>
	
		<rect x="61.77" y="107.4" transform="matrix(-0.8489 -0.5285 0.5285 -0.8489 69.2951 239.0985)" class="st0" width="14.1" height="4.48"/>
	
		<rect x="62.26" y="112.99" transform="matrix(-0.8489 -0.5285 0.5285 -0.8489 67.2539 249.6873)" class="st0" width="14.1" height="4.48"/>
	
		<rect x="64.4" y="119.6" transform="matrix(-0.8489 -0.5285 0.5285 -0.8489 67.7078 263.0333)" class="st0" width="14.1" height="4.48"/>
	
		<rect x="66.18" y="125.99" transform="matrix(-0.8489 -0.5285 0.5285 -0.8489 67.6254 275.7866)" class="st0" width="14.1" height="4.48"/>
	
		<rect x="67.49" y="132.08" transform="matrix(-0.8489 -0.5285 0.5285 -0.8489 66.8317 287.754)" class="st0" width="14.1" height="4.48"/>
	
		<rect x="69.26" y="138.46" transform="matrix(-0.8489 -0.5285 0.5285 -0.8489 66.726 300.4816)" class="st0" width="14.1" height="4.48"/>
	
		<rect x="69.29" y="143.76" transform="matrix(-0.8489 -0.5285 0.5285 -0.8489 63.9852 310.2974)" class="st0" width="14.1" height="4.48"/>
	
		<rect x="71.43" y="150.37" transform="matrix(-0.8489 -0.5285 0.5285 -0.8489 64.4391 323.6433)" class="st0" width="14.1" height="4.48"/>
	
		<rect x="73.21" y="156.76" transform="matrix(-0.8489 -0.5285 0.5285 -0.8489 64.3567 336.3966)" class="st0" width="14.1" height="4.48"/>
	
		<rect x="74.52" y="162.86" transform="matrix(-0.8489 -0.5285 0.5285 -0.8489 63.5631 348.364)" class="st0" width="14.1" height="4.48"/>
	
		<rect x="76.29" y="169.24" transform="matrix(-0.8489 -0.5285 0.5285 -0.8489 63.4574 361.0916)" class="st0" width="14.1" height="4.48"/>
	
		<rect x="75.87" y="173.02" transform="matrix(-0.8489 -0.5285 0.5285 -0.8489 57.0262 366.8297)" class="st0" width="10.13" height="4.48"/>
	
		<rect x="83.41" y="187.92" transform="matrix(-0.8489 -0.5285 0.5285 -0.8489 62.0442 398.0631)" class="st0" width="9" height="4.48"/>
	
		<rect x="82.38" y="196.59" transform="matrix(-0.8489 -0.5285 0.5285 -0.8489 51.852 412.4898)" class="st0" width="4.99" height="4.48"/>
	
		<rect x="80.9" y="193.1" transform="matrix(-0.8489 -0.5285 0.5285 -0.8489 59.0089 407.5536)" class="st0" width="13.69" height="4.48"/>
	
		<rect x="92.86" y="199.17" transform="matrix(-0.8489 -0.5285 0.5285 -0.8489 73.8167 423.9159)" class="st1" width="9.26" height="4.48"/>
	
		<rect x="85.55" y="202.97" transform="matrix(-0.8489 -0.5285 0.5285 -0.8489 67.4177 429.6895)" class="st1" width="19.14" height="4.48"/>
	
		<rect x="78.23" y="206.85" transform="matrix(-0.8489 -0.5285 0.5285 -0.8489 61.2023 435.666)" class="st1" width="29.28" height="4.48"/>
	
		<rect x="76.13" y="209.24" transform="matrix(-0.8489 -0.5285 0.5285 -0.8489 51.3665 437.6421)" class="st1" width="24.21" height="4.48"/>
	
		<rect x="78.97" y="213.03" transform="matrix(-0.8489 -0.5285 0.5285 -0.8489 44.9412 443.3867)" class="st1" width="13.74" height="4.48"/>
	
		<rect x="103.02" y="256.55" transform="matrix(-0.8489 -0.5285 0.5285 -0.8489 65.2723 535.6155)" class="st1" width="12.33" height="3.87"/>
	
		<rect x="101.91" y="250.63" transform="matrix(-0.8489 -0.5285 0.5285 -0.8489 66.1876 524.663)" class="st1" width="12.33" height="4.48"/>
	
		<rect x="105.19" y="233.19" transform="matrix(-0.8489 -0.5285 0.5285 -0.8489 74.6042 492.8016)" class="st1" width="5.09" height="5.09"/>
	
		<rect x="98.15" y="237.03" transform="matrix(-0.8489 -0.5285 0.5285 -0.8489 68.3388 498.6711)" class="st1" width="14.57" height="5.09"/>
	
		<rect x="85.16" y="237.34" transform="matrix(-0.8489 -0.5285 0.5285 -0.8489 36.6838 490.2493)" class="st1" width="6.5" height="5.09"/>
	
		<rect x="88.41" y="239.68" transform="matrix(-0.8489 -0.5285 0.5285 -0.8489 54.2415 508.8863)" class="st1" width="22.87" height="14.02"/>
	
		<rect x="96.46" y="260.05" transform="matrix(-0.8489 -0.5285 0.5285 -0.8489 54.8959 549.8515)" class="st1" width="19.13" height="14.07"/>
	
		<rect x="87.4" y="251.99" transform="matrix(-0.8489 -0.5285 0.5285 -0.8489 40.1717 520.1547)" class="st1" width="14.04" height="4.7"/>
	
		<rect x="89.7" y="257.25" transform="matrix(-0.8489 -0.5285 0.5285 -0.8489 37.1265 530.4628)" class="st1" width="9.35" height="5.35"/>
	
		<rect x="91.49" y="263.22" transform="matrix(-0.8489 -0.5285 0.5285 -0.8489 37.2825 542.4437)" class="st1" width="9.35" height="5.35"/>
	
		<rect x="106.18" y="269.25" transform="matrix(-0.8489 -0.5285 0.5285 -0.8489 49.6872 585.439)" class="st1" width="4.67" height="32.73"/>
	
		<rect x="104.9" y="262.46" transform="matrix(-0.8489 -0.5285 0.5285 -0.8489 50.9227 572.1987)" class="st1" width="4.67" height="32.73"/>
	
		<rect x="102.77" y="256.65" transform="matrix(-0.8489 -0.5285 0.5285 -0.8489 50.2645 560.3881)" class="st1" width="4.89" height="32.73"/>
	
		<rect x="111.04" y="288.38" transform="matrix(-0.8489 -0.5285 0.5285 -0.8489 48.5828 623.3732)" class="st1" width="4.67" height="32.73"/>
	
		<rect x="109.77" y="281.58" transform="matrix(-0.8489 -0.5285 0.5285 -0.8489 49.8182 610.133)" class="st1" width="4.67" height="32.73"/>
	
		<rect x="107.64" y="275.77" transform="matrix(-0.8489 -0.5285 0.5285 -0.8489 49.1601 598.3223)" class="st1" width="4.89" height="32.73"/>
	
		<rect x="118.05" y="308.42" transform="matrix(-0.8489 -0.5285 0.5285 -0.8489 53.2503 656.0839)" class="st1" width="4.67" height="24.02"/>
	
		<rect x="122.34" y="315.05" transform="matrix(-0.8489 -0.5285 0.5285 -0.8489 60.1316 661.9784)" class="st1" width="4.67" height="14.69"/>
	
		<rect x="114.84" y="343.91" transform="matrix(-0.8489 -0.5285 0.5285 -0.8489 31.0211 711.3841)" class="st1" width="4.67" height="14.69"/>
	
		<rect x="118.66" y="342.02" transform="matrix(-0.8489 -0.5285 0.5285 -0.8489 36.653 718.4035)" class="st1" width="4.67" height="23.9"/>
	
		<rect x="124.98" y="340.72" transform="matrix(-0.8489 -0.5285 0.5285 -0.8489 49.0163 719.3369)" class="st1" width="4.67" height="23.9"/>
	
		<rect x="128.86" y="346.96" transform="matrix(-0.8489 -0.5285 0.5285 -0.8489 55.0493 725.4075)" class="st1" width="4.67" height="15.75"/>
	
		<rect x="132.71" y="354.73" transform="matrix(-0.8489 -0.5285 0.5285 -0.8489 60.7582 732.363)" class="st1" width="4.67" height="5.53"/>
	
		<rect x="110.26" y="347.01" transform="matrix(-0.8489 -0.5285 0.5285 -0.8489 23.3249 706.2271)" class="st1" width="4.67" height="5.53"/>
	
		<rect x="125.15" y="322.92" transform="matrix(-0.8489 -0.5285 0.5285 -0.8489 63.8239 668.7612)" class="st1" width="4.67" height="4.67"/>
	
		<rect x="114.48" y="300.97" transform="matrix(-0.8489 -0.5285 0.5285 -0.8489 48.2758 648.4636)" class="st1" width="4.67" height="32.73"/>
	
		<rect x="112.35" y="295.16" transform="matrix(-0.8489 -0.5285 0.5285 -0.8489 47.6176 636.653)" class="st1" width="4.89" height="32.73"/>
	
		<rect x="101.36" y="250.33" transform="matrix(-0.8489 -0.5285 0.5285 -0.8489 50.9463 547.3648)" class="st1" width="4.67" height="32.15"/>
	
		<rect x="100.09" y="243.1" transform="matrix(-0.8489 -0.5285 0.5285 -0.8489 52.6819 533.9781)" class="st1" width="5.13" height="32.73"/>
	
		<rect x="80.99" y="216.73" transform="matrix(-0.8489 -0.5285 0.5285 -0.8489 37.4433 450.2249)" class="st1" width="4.16" height="6.07"/>
	
		<rect x="84.9" y="176.88" transform="matrix(-0.8489 -0.5285 0.5285 -0.8489 66.4531 377.2462)" class="st2" width="4.48" height="4.48"/>
	
		<rect x="77.03" y="180.03" transform="matrix(-0.8489 -0.5285 0.5285 -0.8489 58.4538 381.2515)" class="st2" width="13.37" height="4.48"/>
	
		<rect x="74.92" y="182.92" transform="matrix(-0.8489 -0.5285 0.5285 -0.8489 49.8364 384.5739)" class="st2" width="9.92" height="4.48"/>
	
		<rect x="62.22" y="212.15" transform="matrix(-0.8489 -0.5285 0.5285 -0.8489 5.8799 430.4713)" class="st2" width="4.48" height="4.48"/>
	
		<rect x="97.62" y="218.1" transform="matrix(-0.8489 -0.5285 0.5285 -0.8489 73.007 461.5543)" class="st2" width="9.7" height="4.48"/>
	
		<rect x="89.8" y="221.58" transform="matrix(-0.8489 -0.5285 0.5285 -0.8489 64.9616 467.8393)" class="st2" width="19.08" height="6.11"/>
	
		<rect x="82.69" y="225.31" transform="matrix(-0.8489 -0.5285 0.5285 -0.8489 55.3739 471.5009)" class="st2" width="24.76" height="5.05"/>
	
		<rect x="76.76" y="227.18" transform="matrix(-0.8489 -0.5285 0.5285 -0.8489 43.5735 471.3061)" class="st2" width="24.76" height="4.48"/>
	
		<rect x="82.97" y="231.84" transform="matrix(-0.8489 -0.5285 0.5285 -0.8489 39.2586 479.3826)" class="st2" width="10.34" height="4.48"/>
	
		<rect x="76.06" y="232.61" transform="matrix(-0.8489 -0.5285 0.5285 -0.8489 16.415 493.6581)" class="st2" width="5.4" height="23.74"/>
	
		<rect x="71.45" y="256.42" transform="matrix(-0.8489 -0.5285 0.5285 -0.8489 -1.0567 522.5705)" class="st2" width="5.4" height="10.04"/>
	
		<rect x="69.36" y="266.97" transform="matrix(-0.8489 -0.5285 0.5285 -0.8489 -11.5527 544.6309)" class="st2" width="5.4" height="13.98"/>
	
		<rect x="68.33" y="282.04" transform="matrix(-0.8489 -0.5285 0.5285 -0.8489 -19.1474 564.0187)" class="st2" width="5.4" height="5.4"/>
	
		<rect x="70.06" y="289.49" transform="matrix(-0.8489 -0.5285 0.5285 -0.8489 -19.8793 578.6957)" class="st2" width="5.4" height="5.4"/>
	
		<rect x="71.8" y="296.93" transform="matrix(-0.8489 -0.5285 0.5285 -0.8489 -20.6113 593.3727)" class="st2" width="5.4" height="5.4"/>
	
		<rect x="72.47" y="321.29" transform="matrix(-0.8489 -0.5285 0.5285 -0.8489 2.1415 648.6049)" class="st2" width="42.59" height="5.4"/>
	
		<rect x="113.1" y="327.84" transform="matrix(-0.8489 -0.5285 0.5285 -0.8489 35.9662 684.9964)" class="st2" width="5.56" height="19.03"/>
	
		<rect x="122.32" y="327.7" transform="matrix(-0.8489 -0.5285 0.5285 -0.8489 53.095 689.6028)" class="st2" width="5.56" height="19.03"/>
	
		<rect x="127.03" y="335.09" transform="matrix(-0.8489 -0.5285 0.5285 -0.8489 60.4234 696.8913)" class="st2" width="5.56" height="9.45"/>
	
		<rect x="109.05" y="329.42" transform="matrix(-0.8489 -0.5285 0.5285 -0.8489 30.1562 676.9839)" class="st2" width="5.56" height="9.52"/>
	
		<rect x="118.84" y="325.25" transform="matrix(-0.8489 -0.5285 0.5285 -0.8489 44.772 687.4239)" class="st2" width="3.58" height="24.13"/>
	
		<rect x="62.91" y="220.92" transform="matrix(-0.8489 -0.5285 0.5285 -0.8489 11.6127 449.6502)" class="st2" width="14.31" height="4.48"/>
	
		<rect x="66.58" y="183.6" transform="matrix(-0.8489 -0.5285 0.5285 -0.8489 23.136 402.3047)" class="st2" width="4.96" height="28.48"/>
</g>
</svg>
