<svg id="Vrstva_1" data-name="Vrstva 1" xmlns="http://www.w3.org/2000/svg" viewBox="0 0 397.2 189.42"><defs><style>.cls-1{fill:#4b80a1;}.cls-2{fill:#ccd2d3;}.cls-3{fill:#fff;}.cls-4{fill:#1d1d1b;}</style></defs><title>1</title><path class="cls-1" d="M238.16,190.27a8.21,8.21,0,0,1-1.9.15c-3-.44-4.47.58-3.9,3.79.3,1.73-.59,2.36-2.19,2.12-3.09-.47-4.33.81-3.82,3.89.29,1.8-.78,2.14-2.3,2.09-2.25-.07-4.5.1-6.74,0s-3.32.55-3,2.85c.41,2.64-.76,3.25-3.24,3.14-4.26-.21-8.55-.1-12.82,0-1.64,0-2.32-.49-2.25-2.2a59.22,59.22,0,0,0,0-7.05c-.18-2.25.6-3.21,2.86-2.86,2.45.37,3.29-.53,3.28-3.13,0-8.52.08-8.52-8.49-8.52-4.27,0-8.55-.12-12.82,0-2.25.08-3.19-.63-2.86-2.88s-.63-3.35-3-3.09a18.76,18.76,0,0,1-4.17,0c-3.19-.37-5.27.27-4.59,4.16.26,1.45-.64,1.8-1.93,1.79-4.81,0-9.62-.07-14.43,0-2.59,0-1.83-1.81-1.87-3.14s-.5-3.09,2-3c1.67,0,4,1,4.06-2.39.05-2.54-.75-3.4-3.27-3.3-4,.16-7.91-.07-11.86.07-2.16.08-3.27-.48-2.85-2.81.51-2.77-.81-3.44-3.38-3.31-4.05.19-8.13-.08-12.18.11-2.21.1-2.91-.72-2.6-2.74.37-2.46-.54-3.56-3.13-3.22-1.26.17-2.57-.06-3.85.05-3.07.25-5.86.32-5.1-4.17.25-1.49-.91-1.7-2.07-1.7-10.58,0-21.16,0-31.75,0-1.53,0-2.09.55-2,2.05.09,1.71-.11,3.43,0,5.13.27,3.14,0,5.41-4.21,4.67-2.39-.43-2,1.85-1.9,3.16.18,2.25-.56,3.14-2.82,2.78s-3.43.73-3.15,3.06-.57,3-2.83,2.9c-4.37-.15-8.76-.16-13.14,0-2.26.08-2.5-1-2.26-2.74.2-1.45-1-3.7,2.14-3.49,2.12.15,4.28-.1,6.4.09,2.6.22,3.66-.61,3.52-3.36-.21-3.84,0-7.7-.1-11.55-.06-2.05.24-3.34,2.74-2.91,2.67.45,3.44-.8,3.42-3.42-.07-8.25,0-8.39-8.24-8.19-3,.07-4.46-.48-3.84-3.74.42-2.23-1-2.36-2.68-2.31-1.54,0-3.57.9-2.8-2.46.46-2-.93-4-3.82-3.4-2.36.51-3-.68-2.8-2.84a37.82,37.82,0,0,0,0-3.84c0-4.68,0-4.81-4.58-5.22-2.17-.19-1.3-1.62-1.31-2.54-.07-9.83-.16-19.67,0-29.5.05-2.83-.7-4-3.53-3.47-1.86.32-2.88-.24-2.52-2.37.26-1.58-.83-3.87,2.36-3.63a45.67,45.67,0,0,0,6.72,0c2.29-.18,3.49.44,3.06,3-.39,2.33.49,3.37,3,3.06,1.47-.19,3,.12,4.48-.07,3.18-.4,5.16.23,4.47,4.08-.38,2.08,1.27,1.89,2.5,1.76,2.56-.27,4.2.27,3.63,3.36-.41,2.26.87,2.86,2.8,2.55,2.55-.41,3.54.58,3.19,3.15a30.73,30.73,0,0,0,0,3.84c0,4.41,0,4.54,4.33,4.85,2.17.15,1.74,1.54,1.63,2.68-.27,2.67.75,3.78,3.42,3.32,2.14-.37,2.79.6,2.73,2.67-.12,4.06.08,8.13-.08,12.18-.09,2.25.7,3.22,2.9,2.88,2.55-.4,3.46.74,3.17,3.16a3.86,3.86,0,0,0,0,1c.28,2.48-1.27,6.06.71,7.23,2.58,1.54,6.23.48,9.43.45,1.93,0,1.79-1.69,1.62-2.86-.41-2.76.92-3.18,3.25-3.08,3.84.16,7.7-.06,11.54.11,2.52.11,3.61-.8,3.27-3.31-.29-2.06.45-2.91,2.65-2.69s4.28-.06,6.41.08,3.31-.5,3-2.83.54-3.65,3.13-3.17,3.37-.67,2.94-3c-.45-2.51.67-3.21,3-2.9a17,17,0,0,0,4.16.07c3.27-.39,5.65-.1,5.11,4.25-.29,2.33,1.88,1.52,3,1.56s3.17.39,2.77-1.91c-.65-3.73,1.27-4.19,4.34-4,3.51.22,7-.08,10.57.08,2.26.11,3.5-.4,3-2.94s.55-3.14,3-3c4.05.21,8.12,0,12.18.08,2,.06,3-.39,2.71-2.62-.4-2.77.8-3.66,3.63-3.45,3.93.29,7.91,0,11.86.1,2.1.07,3-.69,2.69-2.76-.44-2.76.77-3.62,3.38-3.29,1.37.18,2.79-.1,4.16.06,3.15.38,5.17-.21,4.57-4.09-.35-2.28,1.54-1.94,2.83-1.8,2.54.28,3.22-.69,3.21-3.22-.09-23.41,0-46.82,0-70.23,0-1.72-.37-3.46,2.48-3.11,2,.24,4.25-.31,3.63,3-.46,2.48,1.17,2.6,2.89,2.41,2.38-.27,3.7.35,3.21,3.09-.39,2.2.64,3.25,2.88,2.87,2.93-.48,3.77,1.09,3,3.46s.5,2.62,2.17,2.41c3.26-.41,4.43.93,3.88,4.1a17.29,17.29,0,0,0,0,2.88c0,4.47,0,4.59,4.35,4.87,1.78.11,1.79,1,1.79,2.29,0,4.17.09,8.34-.06,12.51-.08,2.25.4,3.56,2.95,3.06,2.72-.53,3.3.85,3.11,3.23-.17,2,.06,4.07-.08,6.09s.69,2.8,2.59,2.49c2.86-.47,3.92.7,3.49,3.51-.32,2,.88,2.71,2.68,2.44,2.64-.39,3.78.61,3.36,3.31-.34,2.16.73,2.75,2.75,2.69,4.06-.12,8.13.07,12.19-.09,2.25-.08,3.54.38,3.08,3-.42,2.4.6,3.07,3,3,9.62-.13,19.25,0,28.87-.06,4.5,0,4.51,0,4.16,4.38,0,.43-.7.92,0,1.34.45.62,1.12.52,1.75.52l50.84-.07c2,.21,1.49,1.81,1.4,2.94-.17,2.23.66,3,2.92,2.93,8.12-.12,16.25,0,24.38-.1,2.21,0,3.2.55,2.82,2.85s.51,3.21,3,3.1c4.27-.2,8.55,0,12.83,0,1.18,0,2.41-.19,2.34,1.69-.21,5.43.36,10.87-.31,16.3-15,0-29.93,0-44.9-.11-2.13,0-2.85.65-2.7,2.75.08,1,.59,2.43-.75,3.16-2.71,1.47-5.83-.24-5.69-3.24.1-2.19-.69-2.72-2.75-2.71s-3.39.35-3,2.77c.43,2.59-.68,3.21-3.18,3.18-11.65-.13-23.31,0-35-.11-3,0-4.25.5-4.14,4,.29,8.54.06,17.1,0,25.65h0l-5.79,0c-.08-6.92-.26-13.85-.16-20.77,0-2.44-.71-3-3.07-3s-3.15.55-3.1,3c.13,6.92,0,13.85-.07,20.78h-5.8c0-6.93-.08-13.86-.08-20.78,0-1.73.07-3.2-2.43-3-1.85.17-3.65-.46-3.59,2.67.12,7-.17,14.05-.29,21.08h-5.8c0-5-.1-10,0-15,.06-2.17-.51-3-2.82-3s-3.2.69-3,3.1c.2,3,.05,6,.05,8.94,0,5.83,0,5.83,5.8,5.9,0,1.49.07,3,.08,4.47,0,.64,0,1.27-.68,1.66a3.76,3.76,0,0,1-5.61-3.23c-.05-1.19.4-3-1.62-2.71-4.82.81-4.48-2.24-4.32-5.32.06-1.17-.08-2.35,0-3.52.18-2-.28-3.13-2.73-3.07-2.19,0-3.58.35-3.13,2.94.42,2.41-.6,3.37-3,3-2.16-.35-3.29.46-2.89,2.77.46,2.7-.92,3.43-3.27,3.06s-3.35.63-3,3c.35,2.21-.58,3.2-2.84,2.84s-3.44.46-3,2.95c.35,2.15-.49,3.26-2.8,2.9-2.62-.41-3.82.63-3.41,3.34.33,2.21-.59,3.23-2.84,2.83-2.72-.48-3.34.91-3.08,3.26A18.14,18.14,0,0,1,238.16,190.27Z" transform="translate(-21.69 -18.85)"/><path class="cls-2" d="M286.31,166.58h5.8l0,0a18.47,18.47,0,0,1,.09,3.48c-.4,2.46.89,2.7,2.88,2.85,2.74.2,4-.58,3.5-3.48a15.93,15.93,0,0,1,0-2.85l0,0h5.8l0,0a18.76,18.76,0,0,1,0,3.18c-.53,3.09,1.09,3.58,3.63,3.33,1.93-.18,2.9-1,2.75-3-.08-1.16,0-2.33.06-3.5l0,0,5.79,0c0,1.39-.06,2.77-.07,4.16,0,1-.11,2.16,1.32,2,1.6-.15,3.66.63,4.63-1.15,1.43-2.62-.28-5.06-3.33-5.06l-2.56,0c0-8.55.25-17.11,0-25.65-.11-3.47,1.11-4,4.14-4,11.65.15,23.31,0,35,.11,2.5,0,3.61-.59,3.18-3.18-.4-2.42.95-2.75,3-2.77s2.85.52,2.75,2.71c-.14,3,3,4.71,5.69,3.24,1.34-.73.83-2.11.75-3.16-.15-2.1.57-2.77,2.7-2.75,15,.1,29.93.08,44.9.11a7.12,7.12,0,0,0,.07,1.91c1,3.24-.35,4.33-3.46,3.89-1.81-.25-2.63.58-2.39,2.37.36,2.55-.48,3.89-3.26,3.44-2.31-.37-2.78,1-2.54,2.85.33,2.64-.74,3.65-3.44,3.52-3.84-.19-7.69,0-11.54-.07-1.75,0-3.13,0-3.06,2.44.05,2.13.38,3.69,2.95,3.35s3,.87,3,3.13c0,2.1-.68,3-2.77,2.68-2.68-.43-3.43.89-3.11,3.28.27,2-.61,2.68-2.56,2.57-2.34-.13-4.7,0-7.05-.07-1.93-.11-2.84.57-2.56,2.55.45,3.25-.8,3.89-4,3.42-3.55-.53-7.25,0-10.88-.18-2.32-.11-3.48.55-3.09,3,.42,2.64-.62,3.57-3.33,3.41-3.83-.22-7.69.06-11.54-.1-2.28-.09-3.51.49-3.11,3,.36,2.29-.68,3-2.88,2.87-4.06-.14-8.12,0-12.19,0-1.29,0-2.61-.15-3.21,1.41-.35-1.83-1.78-1.43-3-1.43H292c-5.76,0-5.76,0-5.59,5.78l-48.25,0a18.14,18.14,0,0,0,.06-2.55c-.26-2.35.36-3.74,3.08-3.26,2.25.4,3.17-.62,2.84-2.83-.41-2.71.79-3.75,3.41-3.34,2.31.36,3.15-.75,2.8-2.9-.4-2.49.73-3.31,3-2.95s3.19-.63,2.84-2.84c-.37-2.38.56-3.39,3-3s3.73-.36,3.27-3.06c-.4-2.31.73-3.12,2.89-2.77,2.39.38,3.41-.58,3-3-.45-2.59.94-2.89,3.13-2.94,2.45-.06,2.91,1,2.73,3.07-.11,1.17,0,2.35,0,3.52-.16,3.08-.5,6.13,4.32,5.32,2-.34,1.57,1.52,1.62,2.71a3.76,3.76,0,0,0,5.61,3.23c.68-.39.69-1,.68-1.66,0-1.49-.05-3-.08-4.47ZM356,154.89c2.93.88,2.7-1.13,2.89-3.24.25-2.83-1.18-2.94-3.4-3.08-2.82-.18-3,1.16-3.09,3.4C352.23,154.75,353.46,155.33,356,154.89Zm11.8,0c2.52.57,3.19-.7,3.25-3.14.07-2.69-1.2-3-3.48-3.19-2.91-.18-2.91,1.35-3,3.48C364.43,154.46,365.27,155.42,367.77,154.89Zm11.88-6.21c-2-.17-3.62,0-3.44,2.55.16,2.14.37,3.83,3.37,3.84,2.77,0,3-1.17,3.07-3.44S382,148.17,379.65,148.68Z" transform="translate(-21.69 -18.85)"/><path class="cls-1" d="M286.41,190.25c-.17-5.78-.17-5.78,5.59-5.78h27.53c1.23,0,2.66-.4,3,1.43,0,2.57.12,5.14,0,7.69-.09,2,.61,2.86,2.56,2.55,2.78-.44,4,.57,3.53,3.47-.41,2.4,1.12,2.68,2.91,2.39,3-.48,3.06,1.13,3.19,3.5.16,2.86-1.31,2.75-3.29,2.73-6.19-.07-12.39-.1-18.59,0-2,0-2.76-.61-2.48-2.54.38-2.58-.55-3.85-3.3-3.42-2,.31-3.1-.41-2.72-2.62.46-2.71-.73-3.68-3.37-3.34-1.26.16-2.58-.11-3.84,0-3.34.41-5.71-.07-4.87-4.35.24-1.2-.47-1.72-1.69-1.7C289.18,190.37,287.79,190.29,286.41,190.25Z" transform="translate(-21.69 -18.85)"/><path class="cls-2" d="M369.13,101.59l-50.84.07c-.63,0-1.3.1-1.75-.52l50.5-.07C367.77,101.07,368.55,101,369.13,101.59Z" transform="translate(-21.69 -18.85)"/><path class="cls-2" d="M304.3,166.58c.05-6.93.2-13.86.07-20.78-.05-2.47.77-3,3.1-3s3.11.59,3.07,3c-.1,6.92.08,13.85.16,20.77l0,0h-6.44Z" transform="translate(-21.69 -18.85)"/><path class="cls-2" d="M292.11,166.58c.12-7,.41-14.06.29-21.08-.06-3.13,1.74-2.5,3.59-2.67,2.5-.23,2.43,1.24,2.43,3,0,6.92.05,13.85.08,20.78l0,0h-6.44Z" transform="translate(-21.69 -18.85)"/><path class="cls-2" d="M286.34,166.55c-5.8-.07-5.8-.07-5.8-5.9,0-3,.15-6-.05-8.94-.17-2.41.65-3.1,3-3.1s2.88.79,2.82,3c-.13,5,0,10,0,15Z" transform="translate(-21.69 -18.85)"/><path class="cls-3" d="M356,154.89c-2.51.44-3.74-.14-3.6-2.92.12-2.24.27-3.58,3.09-3.4,2.22.14,3.65.25,3.4,3.08C358.67,153.76,358.9,155.77,356,154.89Z" transform="translate(-21.69 -18.85)"/><path class="cls-1" d="M292.09,166.55h6.44a15.93,15.93,0,0,0,0,2.85c.5,2.9-.76,3.68-3.5,3.48-2-.15-3.28-.39-2.88-2.85A18.47,18.47,0,0,0,292.09,166.55Z" transform="translate(-21.69 -18.85)"/><path class="cls-3" d="M367.77,154.89c-2.5.53-3.34-.43-3.23-2.85.09-2.13.09-3.66,3-3.48,2.28.15,3.55.5,3.48,3.19C371,154.19,370.29,155.46,367.77,154.89Z" transform="translate(-21.69 -18.85)"/><path class="cls-1" d="M304.28,166.55h6.44c0,1.17-.14,2.34-.06,3.5.15,2-.82,2.83-2.75,3-2.54.25-4.16-.24-3.63-3.33A18.76,18.76,0,0,0,304.28,166.55Z" transform="translate(-21.69 -18.85)"/><path class="cls-3" d="M379.65,148.68c2.34-.51,3,.58,3,2.95s-.3,3.45-3.07,3.44c-3,0-3.21-1.7-3.37-3.84C376,148.69,377.65,148.51,379.65,148.68Z" transform="translate(-21.69 -18.85)"/><path class="cls-1" d="M316.48,166.57l2.56,0c3,0,4.76,2.44,3.33,5.06-1,1.78-3,1-4.63,1.15-1.43.13-1.32-1.06-1.32-2,0-1.39.05-2.77.07-4.16Z" transform="translate(-21.69 -18.85)"/><rect class="cls-4" x="342.09" y="110.35" width="8.89" height="8.89"/><rect class="cls-3" x="354.13" y="129.52" width="6.83" height="6.83"/><rect class="cls-3" x="342.67" y="129.56" width="6.83" height="6.83"/><rect class="cls-3" x="330.09" y="129.56" width="6.83" height="6.83"/></svg>